<?xml version="1.0" encoding="utf-8"?>
<!-- Generator: Adobe Illustrator 23.0.0, SVG Export Plug-In . SVG Version: 6.00 Build 0)  -->
<svg version="1.1" id="Camada_1" xmlns="http://www.w3.org/2000/svg" xmlns:xlink="http://www.w3.org/1999/xlink" x="0px" y="0px"
	 viewBox="0 0 172 66.2" style="enable-background:new 0 0 172 66.2;" xml:space="preserve">
<style type="text/css">
	.st0{fill:#DDDDDD;}
	.st1{clip-path:url(#SVGID_4_);}
</style>
<g>
	<path class="st0" d="M3.2,56.6V29.4c0-3.6,2.9-6.5,6.5-6.5h0c3.6,0,6.5,2.9,6.5,6.5v27.2c0,3.6-2.9,6.5-6.5,6.5h0
		C6.1,63.1,3.2,60.2,3.2,56.6z"/>
	<path class="st0" d="M18.5,56.6V20.7c0-3.6,2.9-6.5,6.5-6.5h0c3.6,0,6.5,2.9,6.5,6.5v35.9c0,3.6-2.9,6.5-6.5,6.5h0
		C21.4,63.1,18.5,60.2,18.5,56.6z"/>
	<path class="st0" d="M33.8,56.6V8.1c0-3.6,2.9-6.5,6.5-6.5h0c3.6,0,6.5,2.9,6.5,6.5v48.5c0,3.6-2.9,6.5-6.5,6.5h0
		C36.7,63.1,33.8,60.2,33.8,56.6z"/>
	<g>
		<g>
			<path class="st0" d="M52,32.4V17.6c0-1.3,0.7-2.1,2-2.1h5.3c5.7,0,9.1,3.4,9.1,9.4c0,6-3.4,9.6-9.1,9.6H54
				C52.8,34.5,52,33.8,52,32.4z M58.8,31.2c3.6,0,5.5-2.2,5.5-6.3c0-4-2-6.2-5.5-6.2H56v12.4H58.8z"/>
			<path class="st0" d="M70.9,32.4V17.6c0-1.3,0.7-2.1,2-2.1h9c1.1,0,1.8,0.6,1.8,1.6s-0.7,1.6-1.8,1.6h-7.1v4.6h6.7
				c1,0,1.7,0.6,1.7,1.5s-0.7,1.5-1.7,1.5h-6.7v4.8h7.1c1.1,0,1.8,0.6,1.8,1.6c0,1-0.7,1.6-1.8,1.6h-9
				C71.6,34.5,70.9,33.8,70.9,32.4z"/>
			<path class="st0" d="M90.9,32.5l-5.3-14.2c-0.1-0.4-0.2-0.7-0.2-1.1c0-1.1,0.8-1.9,2.1-1.9c1.1,0,1.7,0.5,2,1.6L94,30.4h0.1
				l4.4-13.7c0.3-1.1,0.9-1.5,2-1.5c1.2,0,2,0.8,2,1.8c0,0.4-0.1,0.7-0.2,1.1L97,32.5c-0.6,1.6-1.5,2.3-3,2.3
				C92.4,34.8,91.5,34.1,90.9,32.5z"/>
			<path class="st0" d="M102.8,32.6c0-1.2,0.9-2.1,2.1-2.1c1.2,0,2.1,0.9,2.1,2.1c0,1.2-0.9,2.1-2.1,2.1
				C103.7,34.7,102.8,33.7,102.8,32.6z"/>
			<path class="st0" d="M52.2,62.2V44.9c0-0.6,0.3-0.9,0.9-0.9h9.7c0.5,0,0.9,0.3,0.9,0.8c0,0.5-0.3,0.8-0.9,0.8H54v7.1h8
				c0.5,0,0.9,0.3,0.9,0.8c0,0.5-0.3,0.8-0.9,0.8h-8v7.9c0,0.6-0.3,0.9-0.9,0.9S52.2,62.8,52.2,62.2z"/>
			<path class="st0" d="M66.2,62.2V44.7c0-0.6,0.3-0.9,0.9-0.9s0.9,0.4,0.9,0.9v17.5c0,0.6-0.3,0.9-0.9,0.9S66.2,62.8,66.2,62.2z"/>
			<path class="st0" d="M71.6,62.2V44.8c0-0.6,0.4-1,1-1c0.5,0,0.7,0.1,1,0.6l10.9,15.5h0.1V44.7c0-0.6,0.3-0.9,0.9-0.9
				c0.5,0,0.9,0.4,0.9,0.9v17.5c0,0.6-0.4,1-1,1c-0.5,0-0.7-0.1-1-0.6L73.4,47.1h-0.1v15.1c0,0.6-0.3,0.9-0.9,0.9
				C71.9,63.2,71.6,62.8,71.6,62.2z"/>
			<path class="st0" d="M88.7,62.4c0-0.1,0-0.3,0.1-0.5l6.5-17.2c0.2-0.6,0.6-0.9,1.2-0.9c0.6,0,0.9,0.3,1.1,0.9l6.5,17.2
				c0.1,0.2,0.1,0.4,0.1,0.5c0,0.5-0.4,0.8-0.9,0.8c-0.5,0-0.7-0.2-0.9-0.7l-2-5.3h-8l-2,5.3c-0.2,0.5-0.4,0.7-0.9,0.7
				C89.1,63.2,88.7,62.8,88.7,62.4z M99.9,55.6l-3.4-9.4h-0.1L93,55.6H99.9z"/>
			<path class="st0" d="M106.5,62.2V44.8c0-0.6,0.4-1,1-1c0.5,0,0.7,0.1,1,0.6l10.9,15.5h0.1V44.7c0-0.6,0.3-0.9,0.9-0.9
				c0.5,0,0.9,0.4,0.9,0.9v17.5c0,0.6-0.4,1-1,1c-0.5,0-0.7-0.1-1-0.6l-10.9-15.5h-0.1v15.1c0,0.6-0.3,0.9-0.9,0.9
				C106.9,63.2,106.5,62.8,106.5,62.2z"/>
			<path class="st0" d="M124.1,53.4c0-6,3.3-9.8,8.5-9.8c3.5,0,6.4,2,7.4,5c0.1,0.3,0.2,0.6,0.2,0.8c0,0.5-0.3,0.8-0.8,0.8
				c-0.4,0-0.8-0.2-0.9-0.8c-0.7-2.6-3.1-4.2-5.7-4.2c-4,0-6.6,3.2-6.6,8.1c0,5,2.6,8.2,6.6,8.2c2.8,0,5.1-1.4,5.8-3.9
				c0.2-0.4,0.4-0.7,0.8-0.7c0.5,0,0.8,0.3,0.8,0.8c0,0.3-0.1,0.6-0.2,1c-1,2.7-3.7,4.4-7.2,4.4C127.4,63.3,124.1,59.5,124.1,53.4z"
				/>
			<path class="st0" d="M143,62.1V44.9c0-0.6,0.3-0.9,0.9-0.9h9.9c0.5,0,0.9,0.3,0.9,0.8c0,0.5-0.4,0.8-0.9,0.8h-9v6.8h8.5
				c0.5,0,0.9,0.3,0.9,0.8s-0.3,0.8-0.9,0.8h-8.5v7.3h9c0.5,0,0.9,0.3,0.9,0.8c0,0.5-0.4,0.8-0.9,0.8h-9.9
				C143.3,63,143,62.6,143,62.1z"/>
		</g>
	</g>
	<g>
		<g>
			<defs>
				<path id="SVGID_1_" d="M162.9,64.4v-1.7c-2.9-0.2-5.2-1.6-5.8-3.8c-0.1-0.2-0.1-0.5-0.1-0.7c0-0.8,0.5-1.3,1.3-1.3
					c0.6,0,1.1,0.3,1.4,1c0.4,1.2,1.4,2.2,3.3,2.4v-5.7l-0.5-0.1c-3.3-0.8-5.2-2.3-5.2-5c0-3,2.4-4.9,5.7-5.2v-1.7
					c0-0.5,0.3-0.8,0.8-0.8c0.4,0,0.7,0.3,0.7,0.8v1.7c2.8,0.2,4.9,1.7,5.6,3.9c0.1,0.2,0.1,0.4,0.1,0.7c0,0.7-0.5,1.2-1.3,1.2
					c-0.7,0-1.1-0.4-1.4-1c-0.6-1.4-1.5-2.2-3-2.3v5.5l0.6,0.2c3.5,0.8,5.4,2.2,5.4,5c0,3.2-2.6,5.1-6,5.3v1.7
					c0,0.5-0.3,0.8-0.7,0.8C163.2,65.2,162.9,64.9,162.9,64.4z M162.9,51.9v-5.2c-1.9,0.2-2.9,1.3-2.9,2.5
					C160,50.5,160.8,51.4,162.9,51.9z M164.4,55v5.4c2.3-0.2,3.2-1.2,3.2-2.6C167.6,56.3,166.8,55.5,164.4,55z"/>
			</defs>
			<clipPath id="SVGID_2_">
				<use xlink:href="#SVGID_1_"  style="overflow:visible;"/>
			</clipPath>
		</g>
		<g>
			<defs>
				<path id="SVGID_3_" d="M162.9,64.4v-1.7c-2.9-0.2-5.2-1.6-5.8-3.8c-0.1-0.2-0.1-0.5-0.1-0.7c0-0.8,0.5-1.3,1.3-1.3
					c0.6,0,1.1,0.3,1.4,1c0.4,1.2,1.4,2.2,3.3,2.4v-5.7l-0.5-0.1c-3.3-0.8-5.2-2.3-5.2-5c0-3,2.4-4.9,5.7-5.2v-1.7
					c0-0.5,0.3-0.8,0.8-0.8c0.4,0,0.7,0.3,0.7,0.8v1.7c2.8,0.2,4.9,1.7,5.6,3.9c0.1,0.2,0.1,0.4,0.1,0.7c0,0.7-0.5,1.2-1.3,1.2
					c-0.7,0-1.1-0.4-1.4-1c-0.6-1.4-1.5-2.2-3-2.3v5.5l0.6,0.2c3.5,0.8,5.4,2.2,5.4,5c0,3.2-2.6,5.1-6,5.3v1.7
					c0,0.5-0.3,0.8-0.7,0.8C163.2,65.2,162.9,64.9,162.9,64.4z M162.9,51.9v-5.2c-1.9,0.2-2.9,1.3-2.9,2.5
					C160,50.5,160.8,51.4,162.9,51.9z M164.4,55v5.4c2.3-0.2,3.2-1.2,3.2-2.6C167.6,56.3,166.8,55.5,164.4,55z"/>
			</defs>
			<clipPath id="SVGID_4_">
				<use xlink:href="#SVGID_3_"  style="overflow:visible;"/>
			</clipPath>
			<g class="st1">
				<rect x="152.5" y="42.3" class="st0" width="24.9" height="24.9"/>
			</g>
		</g>
		<g>
			<defs>
				<path id="SVGID_5_" d="M162.9,64.4v-1.7c-2.9-0.2-5.2-1.6-5.8-3.8c-0.1-0.2-0.1-0.5-0.1-0.7c0-0.8,0.5-1.3,1.3-1.3
					c0.6,0,1.1,0.3,1.4,1c0.4,1.2,1.4,2.2,3.3,2.4v-5.7l-0.5-0.1c-3.3-0.8-5.2-2.3-5.2-5c0-3,2.4-4.9,5.7-5.2v-1.7
					c0-0.5,0.3-0.8,0.8-0.8c0.4,0,0.7,0.3,0.7,0.8v1.7c2.8,0.2,4.9,1.7,5.6,3.9c0.1,0.2,0.1,0.4,0.1,0.7c0,0.7-0.5,1.2-1.3,1.2
					c-0.7,0-1.1-0.4-1.4-1c-0.6-1.4-1.5-2.2-3-2.3v5.5l0.6,0.2c3.5,0.8,5.4,2.2,5.4,5c0,3.2-2.6,5.1-6,5.3v1.7
					c0,0.5-0.3,0.8-0.7,0.8C163.2,65.2,162.9,64.9,162.9,64.4z M162.9,51.9v-5.2c-1.9,0.2-2.9,1.3-2.9,2.5
					C160,50.5,160.8,51.4,162.9,51.9z M164.4,55v5.4c2.3-0.2,3.2-1.2,3.2-2.6C167.6,56.3,166.8,55.5,164.4,55z"/>
			</defs>
			<clipPath id="SVGID_6_">
				<use xlink:href="#SVGID_5_"  style="overflow:visible;"/>
			</clipPath>
		</g>
	</g>
</g>
</svg>
